<?xml version="1.0" encoding="utf-8" standalone="no"?>
<!DOCTYPE svg PUBLIC "-//W3C//DTD SVG 1.1//EN"
  "http://www.w3.org/Graphics/SVG/1.1/DTD/svg11.dtd">
<svg xmlns:xlink="http://www.w3.org/1999/xlink" width="993.027187pt" height="388.6975pt" viewBox="0 0 993.027187 388.6975" xmlns="http://www.w3.org/2000/svg" version="1.1">
 <metadata>
  <rdf:RDF xmlns:dc="http://purl.org/dc/elements/1.1/" xmlns:cc="http://creativecommons.org/ns#" xmlns:rdf="http://www.w3.org/1999/02/22-rdf-syntax-ns#">
   <cc:Work>
    <dc:type rdf:resource="http://purl.org/dc/dcmitype/StillImage"/>
    <dc:date>2026-03-19T11:37:12.444973</dc:date>
    <dc:format>image/svg+xml</dc:format>
    <dc:creator>
     <cc:Agent>
      <dc:title>Matplotlib v3.10.7, https://matplotlib.org/</dc:title>
     </cc:Agent>
    </dc:creator>
   </cc:Work>
  </rdf:RDF>
 </metadata>
 <defs>
  <style type="text/css">*{stroke-linejoin: round; stroke-linecap: butt}</style>
 </defs>
 <g id="figure_1">
  <g id="patch_1">
   <path d="M 0 388.6975 
L 993.027187 388.6975 
L 993.027187 0 
L 0 0 
z
" style="fill: #ffffff"/>
  </g>
  <g id="axes_1">
   <g id="patch_2">
    <path d="M 60.767188 298.5775 
L 489.387187 298.5775 
L 489.387187 25.3575 
L 60.767188 25.3575 
z
" style="fill: #ffffff"/>
   </g>
   <g id="matplotlib.axis_1">
    <g id="xtick_1">
     <g id="line2d_1">
      <path d="M 80.249915 298.5775 
L 80.249915 25.3575 
" clip-path="url(#p0ad40b5a8a)" style="fill: none; stroke-dasharray: 1.85,0.8; stroke-dashoffset: 0; stroke: #cccccc; stroke-opacity: 0.3; stroke-width: 0.5"/>
     </g>
     <g id="text_1">
      <!-- 1 -->
      <g style="fill: #262626" transform="translate(76.432415 316.795625) scale(0.12 -0.12)">
       <defs>
        <path id="DejaVuSerif-31" d="M 909 0 
L 909 331 
L 1722 331 
L 1722 4213 
L 781 3603 
L 781 4013 
L 1919 4750 
L 2350 4750 
L 2350 331 
L 3163 331 
L 3163 0 
L 909 0 
z
" transform="scale(0.015625)"/>
       </defs>
       <use xlink:href="#DejaVuSerif-31"/>
      </g>
     </g>
    </g>
    <g id="xtick_2">
     <g id="line2d_2">
      <path d="M 108.082382 298.5775 
L 108.082382 25.3575 
" clip-path="url(#p0ad40b5a8a)" style="fill: none; stroke-dasharray: 1.85,0.8; stroke-dashoffset: 0; stroke: #cccccc; stroke-opacity: 0.3; stroke-width: 0.5"/>
     </g>
     <g id="text_2">
      <!-- 2 -->
      <g style="fill: #262626" transform="translate(104.264882 316.795625) scale(0.12 -0.12)">
       <defs>
        <path id="DejaVuSerif-32" d="M 819 3553 
L 469 3553 
L 469 4384 
Q 803 4563 1142 4656 
Q 1481 4750 1806 4750 
Q 2534 4750 2956 4397 
Q 3378 4044 3378 3438 
Q 3378 2753 2422 1800 
Q 2347 1728 2309 1691 
L 1131 513 
L 3078 513 
L 3078 1088 
L 3444 1088 
L 3444 0 
L 434 0 
L 434 341 
L 1850 1753 
Q 2319 2222 2519 2614 
Q 2719 3006 2719 3438 
Q 2719 3909 2473 4175 
Q 2228 4441 1797 4441 
Q 1350 4441 1106 4219 
Q 863 3997 819 3553 
z
" transform="scale(0.015625)"/>
       </defs>
       <use xlink:href="#DejaVuSerif-32"/>
      </g>
     </g>
    </g>
    <g id="xtick_3">
     <g id="line2d_3">
      <path d="M 135.91485 298.5775 
L 135.91485 25.3575 
" clip-path="url(#p0ad40b5a8a)" style="fill: none; stroke-dasharray: 1.85,0.8; stroke-dashoffset: 0; stroke: #cccccc; stroke-opacity: 0.3; stroke-width: 0.5"/>
     </g>
     <g id="text_3">
      <!-- 3 -->
      <g style="fill: #262626" transform="translate(132.09735 316.795625) scale(0.12 -0.12)">
       <defs>
        <path id="DejaVuSerif-33" d="M 622 4469 
Q 988 4606 1323 4678 
Q 1659 4750 1953 4750 
Q 2638 4750 3022 4454 
Q 3406 4159 3406 3634 
Q 3406 3213 3140 2930 
Q 2875 2647 2388 2547 
Q 2963 2466 3280 2130 
Q 3597 1794 3597 1259 
Q 3597 606 3158 257 
Q 2719 -91 1894 -91 
Q 1528 -91 1179 -12 
Q 831 66 488 225 
L 488 1131 
L 838 1131 
Q 869 681 1141 450 
Q 1413 219 1906 219 
Q 2384 219 2661 495 
Q 2938 772 2938 1253 
Q 2938 1803 2653 2086 
Q 2369 2369 1819 2369 
L 1522 2369 
L 1522 2688 
L 1678 2688 
Q 2225 2688 2498 2914 
Q 2772 3141 2772 3597 
Q 2772 4006 2547 4223 
Q 2322 4441 1900 4441 
Q 1478 4441 1245 4241 
Q 1013 4041 972 3647 
L 622 3647 
L 622 4469 
z
" transform="scale(0.015625)"/>
       </defs>
       <use xlink:href="#DejaVuSerif-33"/>
      </g>
     </g>
    </g>
    <g id="xtick_4">
     <g id="line2d_4">
      <path d="M 163.747317 298.5775 
L 163.747317 25.3575 
" clip-path="url(#p0ad40b5a8a)" style="fill: none; stroke-dasharray: 1.85,0.8; stroke-dashoffset: 0; stroke: #cccccc; stroke-opacity: 0.3; stroke-width: 0.5"/>
     </g>
     <g id="text_4">
      <!-- 4 -->
      <g style="fill: #262626" transform="translate(159.929817 316.795625) scale(0.12 -0.12)">
       <defs>
        <path id="DejaVuSerif-34" d="M 2234 1581 
L 2234 4063 
L 641 1581 
L 2234 1581 
z
M 3609 0 
L 1484 0 
L 1484 331 
L 2234 331 
L 2234 1247 
L 197 1247 
L 197 1588 
L 2241 4750 
L 2859 4750 
L 2859 1581 
L 3750 1581 
L 3750 1247 
L 2859 1247 
L 2859 331 
L 3609 331 
L 3609 0 
z
" transform="scale(0.015625)"/>
       </defs>
       <use xlink:href="#DejaVuSerif-34"/>
      </g>
     </g>
    </g>
    <g id="xtick_5">
     <g id="line2d_5">
      <path d="M 191.579785 298.5775 
L 191.579785 25.3575 
" clip-path="url(#p0ad40b5a8a)" style="fill: none; stroke-dasharray: 1.85,0.8; stroke-dashoffset: 0; stroke: #cccccc; stroke-opacity: 0.3; stroke-width: 0.5"/>
     </g>
     <g id="text_5">
      <!-- 5 -->
      <g style="fill: #262626" transform="translate(187.762285 316.795625) scale(0.12 -0.12)">
       <defs>
        <path id="DejaVuSerif-35" d="M 3219 4666 
L 3219 4153 
L 1081 4153 
L 1081 2816 
Q 1244 2928 1461 2984 
Q 1678 3041 1947 3041 
Q 2703 3041 3140 2622 
Q 3578 2203 3578 1478 
Q 3578 738 3136 323 
Q 2694 -91 1894 -91 
Q 1572 -91 1234 -12 
Q 897 66 544 225 
L 544 1131 
L 897 1131 
Q 925 688 1179 453 
Q 1434 219 1894 219 
Q 2388 219 2653 544 
Q 2919 869 2919 1478 
Q 2919 2084 2655 2407 
Q 2391 2731 1894 2731 
Q 1613 2731 1398 2631 
Q 1184 2531 1019 2322 
L 750 2322 
L 750 4666 
L 3219 4666 
z
" transform="scale(0.015625)"/>
       </defs>
       <use xlink:href="#DejaVuSerif-35"/>
      </g>
     </g>
    </g>
    <g id="xtick_6">
     <g id="line2d_6">
      <path d="M 219.412252 298.5775 
L 219.412252 25.3575 
" clip-path="url(#p0ad40b5a8a)" style="fill: none; stroke-dasharray: 1.85,0.8; stroke-dashoffset: 0; stroke: #cccccc; stroke-opacity: 0.3; stroke-width: 0.5"/>
     </g>
     <g id="text_6">
      <!-- 6 -->
      <g style="fill: #262626" transform="translate(215.594752 316.795625) scale(0.12 -0.12)">
       <defs>
        <path id="DejaVuSerif-36" d="M 2094 219 
Q 2534 219 2771 542 
Q 3009 866 3009 1472 
Q 3009 2078 2771 2401 
Q 2534 2725 2094 2725 
Q 1647 2725 1412 2412 
Q 1178 2100 1178 1509 
Q 1178 888 1415 553 
Q 1653 219 2094 219 
z
M 1075 2569 
Q 1288 2803 1556 2918 
Q 1825 3034 2163 3034 
Q 2859 3034 3264 2615 
Q 3669 2197 3669 1472 
Q 3669 763 3233 336 
Q 2797 -91 2069 -91 
Q 1278 -91 853 498 
Q 428 1088 428 2181 
Q 428 3406 931 4078 
Q 1434 4750 2350 4750 
Q 2597 4750 2869 4703 
Q 3141 4656 3425 4563 
L 3425 3794 
L 3072 3794 
Q 3034 4109 2831 4275 
Q 2628 4441 2284 4441 
Q 1678 4441 1381 3981 
Q 1084 3522 1075 2569 
z
" transform="scale(0.015625)"/>
       </defs>
       <use xlink:href="#DejaVuSerif-36"/>
      </g>
     </g>
    </g>
    <g id="xtick_7">
     <g id="line2d_7">
      <path d="M 247.24472 298.5775 
L 247.24472 25.3575 
" clip-path="url(#p0ad40b5a8a)" style="fill: none; stroke-dasharray: 1.85,0.8; stroke-dashoffset: 0; stroke: #cccccc; stroke-opacity: 0.3; stroke-width: 0.5"/>
     </g>
     <g id="text_7">
      <!-- 7 -->
      <g style="fill: #262626" transform="translate(243.42722 316.795625) scale(0.12 -0.12)">
       <defs>
        <path id="DejaVuSerif-37" d="M 3609 4347 
L 1784 0 
L 1319 0 
L 3059 4153 
L 903 4153 
L 903 3578 
L 538 3578 
L 538 4666 
L 3609 4666 
L 3609 4347 
z
" transform="scale(0.015625)"/>
       </defs>
       <use xlink:href="#DejaVuSerif-37"/>
      </g>
     </g>
    </g>
    <g id="xtick_8">
     <g id="line2d_8">
      <path d="M 275.077188 298.5775 
L 275.077188 25.3575 
" clip-path="url(#p0ad40b5a8a)" style="fill: none; stroke-dasharray: 1.85,0.8; stroke-dashoffset: 0; stroke: #cccccc; stroke-opacity: 0.3; stroke-width: 0.5"/>
     </g>
     <g id="text_8">
      <!-- 8 -->
      <g style="fill: #262626" transform="translate(271.259688 316.795625) scale(0.12 -0.12)">
       <defs>
        <path id="DejaVuSerif-38" d="M 2981 1275 
Q 2981 1775 2732 2051 
Q 2484 2328 2034 2328 
Q 1584 2328 1336 2051 
Q 1088 1775 1088 1275 
Q 1088 772 1336 495 
Q 1584 219 2034 219 
Q 2484 219 2732 495 
Q 2981 772 2981 1275 
z
M 2853 3541 
Q 2853 3966 2637 4203 
Q 2422 4441 2034 4441 
Q 1650 4441 1433 4203 
Q 1216 3966 1216 3541 
Q 1216 3113 1433 2875 
Q 1650 2638 2034 2638 
Q 2422 2638 2637 2875 
Q 2853 3113 2853 3541 
z
M 2516 2484 
Q 3047 2413 3344 2092 
Q 3641 1772 3641 1275 
Q 3641 619 3225 264 
Q 2809 -91 2034 -91 
Q 1263 -91 845 264 
Q 428 619 428 1275 
Q 428 1772 725 2092 
Q 1022 2413 1556 2484 
Q 1084 2569 832 2842 
Q 581 3116 581 3541 
Q 581 4103 968 4426 
Q 1356 4750 2034 4750 
Q 2713 4750 3100 4426 
Q 3488 4103 3488 3541 
Q 3488 3116 3236 2842 
Q 2984 2569 2516 2484 
z
" transform="scale(0.015625)"/>
       </defs>
       <use xlink:href="#DejaVuSerif-38"/>
      </g>
     </g>
    </g>
    <g id="xtick_9">
     <g id="line2d_9">
      <path d="M 302.909655 298.5775 
L 302.909655 25.3575 
" clip-path="url(#p0ad40b5a8a)" style="fill: none; stroke-dasharray: 1.85,0.8; stroke-dashoffset: 0; stroke: #cccccc; stroke-opacity: 0.3; stroke-width: 0.5"/>
     </g>
     <g id="text_9">
      <!-- 9 -->
      <g style="fill: #262626" transform="translate(299.092155 316.795625) scale(0.12 -0.12)">
       <defs>
        <path id="DejaVuSerif-39" d="M 2994 2091 
Q 2784 1856 2512 1740 
Q 2241 1625 1900 1625 
Q 1206 1625 804 2044 
Q 403 2463 403 3188 
Q 403 3897 839 4323 
Q 1275 4750 2003 4750 
Q 2794 4750 3217 4161 
Q 3641 3572 3641 2478 
Q 3641 1253 3137 581 
Q 2634 -91 1722 -91 
Q 1475 -91 1203 -44 
Q 931 3 647 97 
L 647 872 
L 997 872 
Q 1038 556 1241 387 
Q 1444 219 1784 219 
Q 2391 219 2687 676 
Q 2984 1134 2994 2091 
z
M 1978 4441 
Q 1534 4441 1298 4117 
Q 1063 3794 1063 3188 
Q 1063 2581 1298 2256 
Q 1534 1931 1978 1931 
Q 2422 1931 2658 2245 
Q 2894 2559 2894 3150 
Q 2894 3772 2656 4106 
Q 2419 4441 1978 4441 
z
" transform="scale(0.015625)"/>
       </defs>
       <use xlink:href="#DejaVuSerif-39"/>
      </g>
     </g>
    </g>
    <g id="xtick_10">
     <g id="line2d_10">
      <path d="M 330.742123 298.5775 
L 330.742123 25.3575 
" clip-path="url(#p0ad40b5a8a)" style="fill: none; stroke-dasharray: 1.85,0.8; stroke-dashoffset: 0; stroke: #cccccc; stroke-opacity: 0.3; stroke-width: 0.5"/>
     </g>
     <g id="text_10">
      <!-- 10 -->
      <g style="fill: #262626" transform="translate(323.107123 316.795625) scale(0.12 -0.12)">
       <defs>
        <path id="DejaVuSerif-30" d="M 2034 219 
Q 2513 219 2750 744 
Q 2988 1269 2988 2328 
Q 2988 3391 2750 3916 
Q 2513 4441 2034 4441 
Q 1556 4441 1318 3916 
Q 1081 3391 1081 2328 
Q 1081 1269 1318 744 
Q 1556 219 2034 219 
z
M 2034 -91 
Q 1275 -91 848 546 
Q 422 1184 422 2328 
Q 422 3475 848 4112 
Q 1275 4750 2034 4750 
Q 2797 4750 3222 4112 
Q 3647 3475 3647 2328 
Q 3647 1184 3222 546 
Q 2797 -91 2034 -91 
z
" transform="scale(0.015625)"/>
       </defs>
       <use xlink:href="#DejaVuSerif-31"/>
       <use xlink:href="#DejaVuSerif-30" transform="translate(63.623047 0)"/>
      </g>
     </g>
    </g>
    <g id="xtick_11">
     <g id="line2d_11">
      <path d="M 358.57459 298.5775 
L 358.57459 25.3575 
" clip-path="url(#p0ad40b5a8a)" style="fill: none; stroke-dasharray: 1.85,0.8; stroke-dashoffset: 0; stroke: #cccccc; stroke-opacity: 0.3; stroke-width: 0.5"/>
     </g>
     <g id="text_11">
      <!-- 11 -->
      <g style="fill: #262626" transform="translate(350.93959 316.795625) scale(0.12 -0.12)">
       <use xlink:href="#DejaVuSerif-31"/>
       <use xlink:href="#DejaVuSerif-31" transform="translate(63.623047 0)"/>
      </g>
     </g>
    </g>
    <g id="xtick_12">
     <g id="line2d_12">
      <path d="M 386.407058 298.5775 
L 386.407058 25.3575 
" clip-path="url(#p0ad40b5a8a)" style="fill: none; stroke-dasharray: 1.85,0.8; stroke-dashoffset: 0; stroke: #cccccc; stroke-opacity: 0.3; stroke-width: 0.5"/>
     </g>
     <g id="text_12">
      <!-- 12 -->
      <g style="fill: #262626" transform="translate(378.772058 316.795625) scale(0.12 -0.12)">
       <use xlink:href="#DejaVuSerif-31"/>
       <use xlink:href="#DejaVuSerif-32" transform="translate(63.623047 0)"/>
      </g>
     </g>
    </g>
    <g id="xtick_13">
     <g id="line2d_13">
      <path d="M 414.239525 298.5775 
L 414.239525 25.3575 
" clip-path="url(#p0ad40b5a8a)" style="fill: none; stroke-dasharray: 1.85,0.8; stroke-dashoffset: 0; stroke: #cccccc; stroke-opacity: 0.3; stroke-width: 0.5"/>
     </g>
     <g id="text_13">
      <!-- 13 -->
      <g style="fill: #262626" transform="translate(406.604525 316.795625) scale(0.12 -0.12)">
       <use xlink:href="#DejaVuSerif-31"/>
       <use xlink:href="#DejaVuSerif-33" transform="translate(63.623047 0)"/>
      </g>
     </g>
    </g>
    <g id="xtick_14">
     <g id="line2d_14">
      <path d="M 442.071993 298.5775 
L 442.071993 25.3575 
" clip-path="url(#p0ad40b5a8a)" style="fill: none; stroke-dasharray: 1.85,0.8; stroke-dashoffset: 0; stroke: #cccccc; stroke-opacity: 0.3; stroke-width: 0.5"/>
     </g>
     <g id="text_14">
      <!-- 14 -->
      <g style="fill: #262626" transform="translate(434.436993 316.795625) scale(0.12 -0.12)">
       <use xlink:href="#DejaVuSerif-31"/>
       <use xlink:href="#DejaVuSerif-34" transform="translate(63.623047 0)"/>
      </g>
     </g>
    </g>
    <g id="xtick_15">
     <g id="line2d_15">
      <path d="M 469.90446 298.5775 
L 469.90446 25.3575 
" clip-path="url(#p0ad40b5a8a)" style="fill: none; stroke-dasharray: 1.85,0.8; stroke-dashoffset: 0; stroke: #cccccc; stroke-opacity: 0.3; stroke-width: 0.5"/>
     </g>
     <g id="text_15">
      <!-- 15 -->
      <g style="fill: #262626" transform="translate(462.26946 316.795625) scale(0.12 -0.12)">
       <use xlink:href="#DejaVuSerif-31"/>
       <use xlink:href="#DejaVuSerif-35" transform="translate(63.623047 0)"/>
      </g>
     </g>
    </g>
    <g id="text_16">
     <!-- Number of Iterations -->
     <g style="fill: #262626" transform="translate(199.97375 333.929062) scale(0.14 -0.14)">
      <defs>
       <path id="DejaVuSerif-4e" d="M 313 0 
L 313 331 
L 941 331 
L 941 4331 
L 313 4331 
L 313 4666 
L 1509 4666 
L 4306 984 
L 4306 4331 
L 3681 4331 
L 3681 4666 
L 5319 4666 
L 5319 4331 
L 4691 4331 
L 4691 -91 
L 4313 -91 
L 1325 3841 
L 1325 331 
L 1953 331 
L 1953 0 
L 313 0 
z
" transform="scale(0.015625)"/>
       <path id="DejaVuSerif-75" d="M 2266 3322 
L 3341 3322 
L 3341 331 
L 3884 331 
L 3884 0 
L 2766 0 
L 2766 588 
Q 2606 256 2353 82 
Q 2100 -91 1766 -91 
Q 1213 -91 952 223 
Q 691 538 691 1209 
L 691 2988 
L 172 2988 
L 172 3322 
L 1269 3322 
L 1269 1388 
Q 1269 781 1417 556 
Q 1566 331 1947 331 
Q 2347 331 2556 625 
Q 2766 919 2766 1478 
L 2766 2988 
L 2266 2988 
L 2266 3322 
z
" transform="scale(0.015625)"/>
       <path id="DejaVuSerif-6d" d="M 3316 2675 
Q 3481 3041 3739 3227 
Q 3997 3413 4341 3413 
Q 4863 3413 5119 3089 
Q 5375 2766 5375 2113 
L 5375 331 
L 5894 331 
L 5894 0 
L 4300 0 
L 4300 331 
L 4800 331 
L 4800 2047 
Q 4800 2556 4650 2772 
Q 4500 2988 4153 2988 
Q 3769 2988 3567 2697 
Q 3366 2406 3366 1850 
L 3366 331 
L 3866 331 
L 3866 0 
L 2291 0 
L 2291 331 
L 2791 331 
L 2791 2069 
Q 2791 2566 2641 2777 
Q 2491 2988 2144 2988 
Q 1759 2988 1557 2697 
Q 1356 2406 1356 1850 
L 1356 331 
L 1856 331 
L 1856 0 
L 263 0 
L 263 331 
L 781 331 
L 781 2994 
L 231 2994 
L 231 3322 
L 1356 3322 
L 1356 2731 
Q 1516 3063 1762 3238 
Q 2009 3413 2322 3413 
Q 2709 3413 2968 3220 
Q 3228 3028 3316 2675 
z
" transform="scale(0.015625)"/>
       <path id="DejaVuSerif-62" d="M 738 331 
L 738 4531 
L 184 4531 
L 184 4863 
L 1313 4863 
L 1313 2803 
Q 1481 3116 1742 3264 
Q 2003 3413 2388 3413 
Q 3000 3413 3387 2928 
Q 3775 2444 3775 1663 
Q 3775 881 3387 395 
Q 3000 -91 2388 -91 
Q 2003 -91 1742 57 
Q 1481 206 1313 519 
L 1313 0 
L 184 0 
L 184 331 
L 738 331 
z
M 1313 1497 
Q 1313 897 1542 583 
Q 1772 269 2209 269 
Q 2650 269 2876 622 
Q 3103 975 3103 1663 
Q 3103 2353 2876 2703 
Q 2650 3053 2209 3053 
Q 1772 3053 1542 2737 
Q 1313 2422 1313 1825 
L 1313 1497 
z
" transform="scale(0.015625)"/>
       <path id="DejaVuSerif-65" d="M 3469 1600 
L 991 1600 
L 991 1575 
Q 991 903 1244 561 
Q 1497 219 1991 219 
Q 2369 219 2611 417 
Q 2853 616 2950 1006 
L 3413 1006 
Q 3275 459 2904 184 
Q 2534 -91 1931 -91 
Q 1203 -91 761 389 
Q 319 869 319 1663 
Q 319 2450 753 2931 
Q 1188 3413 1894 3413 
Q 2647 3413 3050 2948 
Q 3453 2484 3469 1600 
z
M 2791 1931 
Q 2772 2513 2545 2808 
Q 2319 3103 1894 3103 
Q 1497 3103 1269 2806 
Q 1041 2509 991 1931 
L 2791 1931 
z
" transform="scale(0.015625)"/>
       <path id="DejaVuSerif-72" d="M 3059 3328 
L 3059 2497 
L 2728 2497 
Q 2713 2744 2591 2866 
Q 2469 2988 2234 2988 
Q 1809 2988 1582 2694 
Q 1356 2400 1356 1850 
L 1356 331 
L 2022 331 
L 2022 0 
L 263 0 
L 263 331 
L 781 331 
L 781 2994 
L 231 2994 
L 231 3322 
L 1356 3322 
L 1356 2731 
Q 1525 3078 1790 3245 
Q 2056 3413 2438 3413 
Q 2578 3413 2733 3391 
Q 2888 3369 3059 3328 
z
" transform="scale(0.015625)"/>
       <path id="DejaVuSerif-20" transform="scale(0.015625)"/>
       <path id="DejaVuSerif-6f" d="M 1925 219 
Q 2388 219 2623 584 
Q 2859 950 2859 1663 
Q 2859 2375 2623 2739 
Q 2388 3103 1925 3103 
Q 1463 3103 1227 2739 
Q 991 2375 991 1663 
Q 991 950 1228 584 
Q 1466 219 1925 219 
z
M 1925 -91 
Q 1200 -91 759 389 
Q 319 869 319 1663 
Q 319 2456 758 2934 
Q 1197 3413 1925 3413 
Q 2653 3413 3092 2934 
Q 3531 2456 3531 1663 
Q 3531 869 3092 389 
Q 2653 -91 1925 -91 
z
" transform="scale(0.015625)"/>
       <path id="DejaVuSerif-66" d="M 2753 4078 
L 2450 4078 
Q 2447 4313 2317 4434 
Q 2188 4556 1941 4556 
Q 1619 4556 1487 4379 
Q 1356 4203 1356 3750 
L 1356 3322 
L 2284 3322 
L 2284 2988 
L 1356 2988 
L 1356 331 
L 2094 331 
L 2094 0 
L 231 0 
L 231 331 
L 781 331 
L 781 2988 
L 231 2988 
L 231 3322 
L 781 3322 
L 781 3738 
Q 781 4294 1070 4578 
Q 1359 4863 1919 4863 
Q 2128 4863 2337 4825 
Q 2547 4788 2753 4709 
L 2753 4078 
z
" transform="scale(0.015625)"/>
       <path id="DejaVuSerif-49" d="M 1581 331 
L 2175 331 
L 2175 0 
L 353 0 
L 353 331 
L 947 331 
L 947 4331 
L 353 4331 
L 353 4666 
L 2175 4666 
L 2175 4331 
L 1581 4331 
L 1581 331 
z
" transform="scale(0.015625)"/>
       <path id="DejaVuSerif-74" d="M 691 2988 
L 184 2988 
L 184 3322 
L 691 3322 
L 691 4353 
L 1269 4353 
L 1269 3322 
L 2350 3322 
L 2350 2988 
L 1269 2988 
L 1269 878 
Q 1269 456 1350 337 
Q 1431 219 1650 219 
Q 1875 219 1978 351 
Q 2081 484 2088 781 
L 2522 781 
Q 2497 328 2275 118 
Q 2053 -91 1600 -91 
Q 1103 -91 897 129 
Q 691 350 691 878 
L 691 2988 
z
" transform="scale(0.015625)"/>
       <path id="DejaVuSerif-61" d="M 2547 1044 
L 2547 1747 
L 1806 1747 
Q 1378 1747 1168 1562 
Q 959 1378 959 997 
Q 959 650 1171 447 
Q 1384 244 1747 244 
Q 2106 244 2326 466 
Q 2547 688 2547 1044 
z
M 3122 2075 
L 3122 331 
L 3634 331 
L 3634 0 
L 2547 0 
L 2547 359 
Q 2356 128 2106 18 
Q 1856 -91 1522 -91 
Q 969 -91 644 203 
Q 319 497 319 997 
Q 319 1513 691 1797 
Q 1063 2081 1741 2081 
L 2547 2081 
L 2547 2309 
Q 2547 2688 2317 2895 
Q 2088 3103 1672 3103 
Q 1328 3103 1125 2947 
Q 922 2791 872 2484 
L 575 2484 
L 575 3156 
Q 875 3284 1158 3348 
Q 1441 3413 1709 3413 
Q 2400 3413 2761 3070 
Q 3122 2728 3122 2075 
z
" transform="scale(0.015625)"/>
       <path id="DejaVuSerif-69" d="M 622 4353 
Q 622 4497 726 4603 
Q 831 4709 978 4709 
Q 1122 4709 1226 4603 
Q 1331 4497 1331 4353 
Q 1331 4206 1228 4103 
Q 1125 4000 978 4000 
Q 831 4000 726 4103 
Q 622 4206 622 4353 
z
M 1356 331 
L 1900 331 
L 1900 0 
L 231 0 
L 231 331 
L 781 331 
L 781 2988 
L 231 2988 
L 231 3322 
L 1356 3322 
L 1356 331 
z
" transform="scale(0.015625)"/>
       <path id="DejaVuSerif-6e" d="M 263 0 
L 263 331 
L 781 331 
L 781 2988 
L 231 2988 
L 231 3322 
L 1356 3322 
L 1356 2731 
Q 1516 3069 1770 3241 
Q 2025 3413 2363 3413 
Q 2913 3413 3172 3097 
Q 3431 2781 3431 2113 
L 3431 331 
L 3944 331 
L 3944 0 
L 2356 0 
L 2356 331 
L 2853 331 
L 2853 1931 
Q 2853 2541 2703 2767 
Q 2553 2994 2175 2994 
Q 1775 2994 1565 2701 
Q 1356 2409 1356 1850 
L 1356 331 
L 1856 331 
L 1856 0 
L 263 0 
z
" transform="scale(0.015625)"/>
       <path id="DejaVuSerif-73" d="M 359 184 
L 359 959 
L 691 959 
Q 703 588 923 403 
Q 1144 219 1575 219 
Q 1963 219 2166 364 
Q 2369 509 2369 788 
Q 2369 1006 2220 1140 
Q 2072 1275 1594 1428 
L 1178 1569 
Q 750 1706 558 1912 
Q 366 2119 366 2438 
Q 366 2894 700 3153 
Q 1034 3413 1625 3413 
Q 1888 3413 2178 3344 
Q 2469 3275 2778 3144 
L 2778 2419 
L 2447 2419 
Q 2434 2741 2221 2922 
Q 2009 3103 1644 3103 
Q 1281 3103 1095 2975 
Q 909 2847 909 2591 
Q 909 2381 1050 2254 
Q 1191 2128 1613 1997 
L 2069 1856 
Q 2541 1709 2748 1489 
Q 2956 1269 2956 922 
Q 2956 450 2595 179 
Q 2234 -91 1600 -91 
Q 1278 -91 972 -22 
Q 666 47 359 184 
z
" transform="scale(0.015625)"/>
      </defs>
      <use xlink:href="#DejaVuSerif-4e"/>
      <use xlink:href="#DejaVuSerif-75" transform="translate(87.5 0)"/>
      <use xlink:href="#DejaVuSerif-6d" transform="translate(151.904297 0)"/>
      <use xlink:href="#DejaVuSerif-62" transform="translate(246.728516 0)"/>
      <use xlink:href="#DejaVuSerif-65" transform="translate(310.742188 0)"/>
      <use xlink:href="#DejaVuSerif-72" transform="translate(369.921875 0)"/>
      <use xlink:href="#DejaVuSerif-20" transform="translate(417.724609 0)"/>
      <use xlink:href="#DejaVuSerif-6f" transform="translate(449.511719 0)"/>
      <use xlink:href="#DejaVuSerif-66" transform="translate(509.716797 0)"/>
      <use xlink:href="#DejaVuSerif-20" transform="translate(546.728516 0)"/>
      <use xlink:href="#DejaVuSerif-49" transform="translate(578.515625 0)"/>
      <use xlink:href="#DejaVuSerif-74" transform="translate(618.017578 0)"/>
      <use xlink:href="#DejaVuSerif-65" transform="translate(658.203125 0)"/>
      <use xlink:href="#DejaVuSerif-72" transform="translate(717.382812 0)"/>
      <use xlink:href="#DejaVuSerif-61" transform="translate(765.185547 0)"/>
      <use xlink:href="#DejaVuSerif-74" transform="translate(824.804688 0)"/>
      <use xlink:href="#DejaVuSerif-69" transform="translate(864.990234 0)"/>
      <use xlink:href="#DejaVuSerif-6f" transform="translate(896.972656 0)"/>
      <use xlink:href="#DejaVuSerif-6e" transform="translate(957.177734 0)"/>
      <use xlink:href="#DejaVuSerif-73" transform="translate(1021.582031 0)"/>
     </g>
    </g>
   </g>
   <g id="matplotlib.axis_2">
    <g id="ytick_1">
     <g id="line2d_16">
      <path d="M 60.767188 287.937577 
L 489.387187 287.937577 
" clip-path="url(#p0ad40b5a8a)" style="fill: none; stroke-dasharray: 1.85,0.8; stroke-dashoffset: 0; stroke: #cccccc; stroke-opacity: 0.3; stroke-width: 0.5"/>
     </g>
     <g id="text_17">
      <!-- 0.62 -->
      <g style="fill: #262626" transform="translate(24.948438 292.496639) scale(0.12 -0.12)">
       <defs>
        <path id="DejaVuSerif-2e" d="M 603 325 
Q 603 500 722 622 
Q 841 744 1019 744 
Q 1191 744 1312 622 
Q 1434 500 1434 325 
Q 1434 153 1312 31 
Q 1191 -91 1019 -91 
Q 841 -91 722 29 
Q 603 150 603 325 
z
" transform="scale(0.015625)"/>
       </defs>
       <use xlink:href="#DejaVuSerif-30"/>
       <use xlink:href="#DejaVuSerif-2e" transform="translate(63.623047 0)"/>
       <use xlink:href="#DejaVuSerif-36" transform="translate(95.410156 0)"/>
       <use xlink:href="#DejaVuSerif-32" transform="translate(159.033203 0)"/>
      </g>
     </g>
    </g>
    <g id="ytick_2">
     <g id="line2d_17">
      <path d="M 60.767188 232.80844 
L 489.387187 232.80844 
" clip-path="url(#p0ad40b5a8a)" style="fill: none; stroke-dasharray: 1.85,0.8; stroke-dashoffset: 0; stroke: #cccccc; stroke-opacity: 0.3; stroke-width: 0.5"/>
     </g>
     <g id="text_18">
      <!-- 0.63 -->
      <g style="fill: #262626" transform="translate(24.948438 237.367503) scale(0.12 -0.12)">
       <use xlink:href="#DejaVuSerif-30"/>
       <use xlink:href="#DejaVuSerif-2e" transform="translate(63.623047 0)"/>
       <use xlink:href="#DejaVuSerif-36" transform="translate(95.410156 0)"/>
       <use xlink:href="#DejaVuSerif-33" transform="translate(159.033203 0)"/>
      </g>
     </g>
    </g>
    <g id="ytick_3">
     <g id="line2d_18">
      <path d="M 60.767188 177.679304 
L 489.387187 177.679304 
" clip-path="url(#p0ad40b5a8a)" style="fill: none; stroke-dasharray: 1.85,0.8; stroke-dashoffset: 0; stroke: #cccccc; stroke-opacity: 0.3; stroke-width: 0.5"/>
     </g>
     <g id="text_19">
      <!-- 0.64 -->
      <g style="fill: #262626" transform="translate(24.948438 182.238366) scale(0.12 -0.12)">
       <use xlink:href="#DejaVuSerif-30"/>
       <use xlink:href="#DejaVuSerif-2e" transform="translate(63.623047 0)"/>
       <use xlink:href="#DejaVuSerif-36" transform="translate(95.410156 0)"/>
       <use xlink:href="#DejaVuSerif-34" transform="translate(159.033203 0)"/>
      </g>
     </g>
    </g>
    <g id="ytick_4">
     <g id="line2d_19">
      <path d="M 60.767188 122.550167 
L 489.387187 122.550167 
" clip-path="url(#p0ad40b5a8a)" style="fill: none; stroke-dasharray: 1.85,0.8; stroke-dashoffset: 0; stroke: #cccccc; stroke-opacity: 0.3; stroke-width: 0.5"/>
     </g>
     <g id="text_20">
      <!-- 0.65 -->
      <g style="fill: #262626" transform="translate(24.948438 127.10923) scale(0.12 -0.12)">
       <use xlink:href="#DejaVuSerif-30"/>
       <use xlink:href="#DejaVuSerif-2e" transform="translate(63.623047 0)"/>
       <use xlink:href="#DejaVuSerif-36" transform="translate(95.410156 0)"/>
       <use xlink:href="#DejaVuSerif-35" transform="translate(159.033203 0)"/>
      </g>
     </g>
    </g>
    <g id="ytick_5">
     <g id="line2d_20">
      <path d="M 60.767188 67.421031 
L 489.387187 67.421031 
" clip-path="url(#p0ad40b5a8a)" style="fill: none; stroke-dasharray: 1.85,0.8; stroke-dashoffset: 0; stroke: #cccccc; stroke-opacity: 0.3; stroke-width: 0.5"/>
     </g>
     <g id="text_21">
      <!-- 0.66 -->
      <g style="fill: #262626" transform="translate(24.948438 71.980094) scale(0.12 -0.12)">
       <use xlink:href="#DejaVuSerif-30"/>
       <use xlink:href="#DejaVuSerif-2e" transform="translate(63.623047 0)"/>
       <use xlink:href="#DejaVuSerif-36" transform="translate(95.410156 0)"/>
       <use xlink:href="#DejaVuSerif-36" transform="translate(159.033203 0)"/>
      </g>
     </g>
    </g>
    <g id="text_22">
     <!-- Alignment -->
     <g style="fill: #262626" transform="translate(17.837813 198.592813) rotate(-90) scale(0.14 -0.14)">
      <defs>
       <path id="DejaVuSerif-41" d="M 1281 1691 
L 2994 1691 
L 2138 3909 
L 1281 1691 
z
M -38 0 
L -38 331 
L 372 331 
L 2034 4666 
L 2559 4666 
L 4225 331 
L 4684 331 
L 4684 0 
L 2988 0 
L 2988 331 
L 3506 331 
L 3116 1356 
L 1153 1356 
L 763 331 
L 1275 331 
L 1275 0 
L -38 0 
z
" transform="scale(0.015625)"/>
       <path id="DejaVuSerif-6c" d="M 1313 331 
L 1856 331 
L 1856 0 
L 184 0 
L 184 331 
L 738 331 
L 738 4531 
L 184 4531 
L 184 4863 
L 1313 4863 
L 1313 331 
z
" transform="scale(0.015625)"/>
       <path id="DejaVuSerif-67" d="M 3359 2988 
L 3359 72 
Q 3359 -644 2965 -1033 
Q 2572 -1422 1844 -1422 
Q 1516 -1422 1216 -1362 
Q 916 -1303 641 -1184 
L 641 -488 
L 941 -488 
Q 997 -813 1206 -963 
Q 1416 -1113 1806 -1113 
Q 2313 -1113 2548 -827 
Q 2784 -541 2784 72 
L 2784 519 
Q 2616 206 2355 57 
Q 2094 -91 1709 -91 
Q 1097 -91 708 395 
Q 319 881 319 1663 
Q 319 2444 706 2928 
Q 1094 3413 1709 3413 
Q 2094 3413 2355 3264 
Q 2616 3116 2784 2803 
L 2784 3322 
L 3909 3322 
L 3909 2988 
L 3359 2988 
z
M 2784 1825 
Q 2784 2422 2554 2737 
Q 2325 3053 1888 3053 
Q 1444 3053 1217 2703 
Q 991 2353 991 1663 
Q 991 975 1217 622 
Q 1444 269 1888 269 
Q 2325 269 2554 583 
Q 2784 897 2784 1497 
L 2784 1825 
z
" transform="scale(0.015625)"/>
      </defs>
      <use xlink:href="#DejaVuSerif-41"/>
      <use xlink:href="#DejaVuSerif-6c" transform="translate(72.216797 0)"/>
      <use xlink:href="#DejaVuSerif-69" transform="translate(104.199219 0)"/>
      <use xlink:href="#DejaVuSerif-67" transform="translate(136.181641 0)"/>
      <use xlink:href="#DejaVuSerif-6e" transform="translate(200.195312 0)"/>
      <use xlink:href="#DejaVuSerif-6d" transform="translate(264.599609 0)"/>
      <use xlink:href="#DejaVuSerif-65" transform="translate(359.423828 0)"/>
      <use xlink:href="#DejaVuSerif-6e" transform="translate(418.603516 0)"/>
      <use xlink:href="#DejaVuSerif-74" transform="translate(483.007812 0)"/>
     </g>
    </g>
   </g>
   <g id="FillBetweenPolyCollection_1">
    <defs>
     <path id="mb08e8d6572" d="M 80.249915 -256.775379 
L 80.249915 -168.568761 
L 108.082382 -172.979092 
L 135.91485 -195.582038 
L 163.747317 -186.210085 
L 191.579785 -186.761376 
L 219.412252 -192.825581 
L 247.24472 -191.722998 
L 275.077188 -187.863959 
L 302.909655 -210.466905 
L 330.742123 -206.056574 
L 358.57459 -219.287567 
L 386.407058 -218.184984 
L 414.239525 -209.364322 
L 442.071993 -247.403426 
L 469.90446 -245.749552 
L 469.90446 -340.571667 
L 469.90446 -340.571667 
L 442.071993 -340.020375 
L 414.239525 -307.494185 
L 386.407058 -309.69935 
L 358.57459 -314.109681 
L 330.742123 -300.878688 
L 302.909655 -306.391602 
L 275.077188 -282.686073 
L 247.24472 -286.545113 
L 219.412252 -288.750278 
L 191.579785 -283.788656 
L 163.747317 -286.545113 
L 135.91485 -288.198987 
L 108.082382 -267.801207 
L 80.249915 -256.775379 
z
" style="stroke: #8da0cb; stroke-opacity: 0.2; stroke-width: 0.24"/>
    </defs>
    <g clip-path="url(#p0ad40b5a8a)">
     <use xlink:href="#mb08e8d6572" x="0" y="388.6975" style="fill: #8da0cb; fill-opacity: 0.2; stroke: #8da0cb; stroke-opacity: 0.2; stroke-width: 0.24"/>
    </g>
   </g>
   <g id="FillBetweenPolyCollection_2">
    <defs>
     <path id="m62f38c4c6a" d="M 80.249915 -218.184984 
L 80.249915 -123.362869 
L 108.082382 -177.389423 
L 135.91485 -129.978366 
L 163.747317 -124.465452 
L 191.579785 -112.888333 
L 219.412252 -122.260287 
L 247.24472 -168.01747 
L 275.077188 -152.581312 
L 302.909655 -135.491279 
L 330.742123 -154.786477 
L 358.57459 -168.568761 
L 386.407058 -193.376872 
L 414.239525 -163.607139 
L 442.071993 -162.504556 
L 469.90446 -141.004193 
L 469.90446 -235.826308 
L 469.90446 -235.826308 
L 442.071993 -258.429253 
L 414.239525 -270.557663 
L 386.407058 -285.993822 
L 358.57459 -266.698624 
L 330.742123 -249.608592 
L 302.909655 -235.826308 
L 275.077188 -250.711174 
L 247.24472 -263.942167 
L 219.412252 -219.287567 
L 191.579785 -208.813031 
L 163.747317 -211.569487 
L 135.91485 -219.287567 
L 108.082382 -262.288293 
L 80.249915 -218.184984 
z
" style="stroke: #66c2a5; stroke-opacity: 0.2; stroke-width: 0.24"/>
    </defs>
    <g clip-path="url(#p0ad40b5a8a)">
     <use xlink:href="#m62f38c4c6a" x="0" y="388.6975" style="fill: #66c2a5; fill-opacity: 0.2; stroke: #66c2a5; stroke-opacity: 0.2; stroke-width: 0.24"/>
    </g>
   </g>
   <g id="line2d_21">
    <path d="M 80.249915 176.02543 
L 108.082382 168.307351 
L 135.91485 146.806987 
L 163.747317 152.319901 
L 191.579785 153.422484 
L 219.412252 147.90957 
L 247.24472 149.563444 
L 275.077188 153.422484 
L 302.909655 130.268247 
L 330.742123 135.229869 
L 358.57459 121.998876 
L 386.407058 124.755333 
L 414.239525 130.268247 
L 442.071993 94.985599 
L 469.90446 95.536891 
" clip-path="url(#p0ad40b5a8a)" style="fill: none; stroke: #8da0cb; stroke-width: 2; stroke-linecap: round"/>
   </g>
   <g id="line2d_22">
    <path d="M 80.249915 217.923573 
L 108.082382 168.858642 
L 135.91485 214.064534 
L 163.747317 220.68003 
L 191.579785 227.846818 
L 219.412252 217.923573 
L 247.24472 172.717682 
L 275.077188 187.051257 
L 302.909655 203.038707 
L 330.742123 186.499966 
L 358.57459 171.063808 
L 386.407058 149.012153 
L 414.239525 171.615099 
L 442.071993 178.230595 
L 469.90446 200.28225 
" clip-path="url(#p0ad40b5a8a)" style="fill: none; stroke: #66c2a5; stroke-width: 2; stroke-linecap: round"/>
   </g>
   <g id="line2d_23">
    <path d="M 80.249915 216.269699 
L 108.082382 216.269699 
L 135.91485 216.269699 
L 163.747317 216.269699 
L 191.579785 216.269699 
L 219.412252 216.269699 
L 247.24472 216.269699 
L 275.077188 216.269699 
L 302.909655 216.269699 
L 330.742123 216.269699 
L 358.57459 216.269699 
L 386.407058 216.269699 
L 414.239525 216.269699 
L 442.071993 216.269699 
L 469.90446 216.269699 
" clip-path="url(#p0ad40b5a8a)" style="fill: none; stroke: #fc8d62; stroke-width: 2; stroke-linecap: round"/>
   </g>
   <g id="line2d_24">
    <path d="M 80.249915 183.192218 
L 108.082382 183.192218 
L 135.91485 183.192218 
L 163.747317 183.192218 
L 191.579785 183.192218 
L 219.412252 183.192218 
L 247.24472 183.192218 
L 275.077188 183.192218 
L 302.909655 183.192218 
L 330.742123 183.192218 
L 358.57459 183.192218 
L 386.407058 183.192218 
L 414.239525 183.192218 
L 442.071993 183.192218 
L 469.90446 183.192218 
" clip-path="url(#p0ad40b5a8a)" style="fill: none; stroke: #e78ac3; stroke-width: 2; stroke-linecap: round"/>
   </g>
   <g id="patch_3">
    <path d="M 60.767188 298.5775 
L 60.767188 25.3575 
" style="fill: none; stroke: #cccccc; stroke-width: 0.8; stroke-linejoin: miter; stroke-linecap: square"/>
   </g>
   <g id="patch_4">
    <path d="M 489.387187 298.5775 
L 489.387187 25.3575 
" style="fill: none; stroke: #cccccc; stroke-width: 0.8; stroke-linejoin: miter; stroke-linecap: square"/>
   </g>
   <g id="patch_5">
    <path d="M 60.767188 298.5775 
L 489.387188 298.5775 
" style="fill: none; stroke: #cccccc; stroke-width: 0.8; stroke-linejoin: miter; stroke-linecap: square"/>
   </g>
   <g id="patch_6">
    <path d="M 60.767188 25.3575 
L 489.387188 25.3575 
" style="fill: none; stroke: #cccccc; stroke-width: 0.8; stroke-linejoin: miter; stroke-linecap: square"/>
   </g>
   <g id="text_23">
    <!-- DesignBench -->
    <g style="fill: #262626" transform="translate(221.592188 19.3575) scale(0.16 -0.16)">
     <defs>
      <path id="DejaVuSerif-44" d="M 1581 331 
L 2163 331 
Q 3072 331 3558 850 
Q 4044 1369 4044 2338 
Q 4044 3306 3559 3818 
Q 3075 4331 2163 4331 
L 1581 4331 
L 1581 331 
z
M 353 0 
L 353 331 
L 947 331 
L 947 4331 
L 353 4331 
L 353 4666 
L 2209 4666 
Q 3416 4666 4089 4050 
Q 4763 3434 4763 2338 
Q 4763 1238 4088 619 
Q 3413 0 2209 0 
L 353 0 
z
" transform="scale(0.015625)"/>
      <path id="DejaVuSerif-42" d="M 1581 331 
L 2516 331 
Q 3078 331 3337 575 
Q 3597 819 3597 1350 
Q 3597 1878 3339 2120 
Q 3081 2363 2516 2363 
L 1581 2363 
L 1581 331 
z
M 1581 2694 
L 2375 2694 
Q 2888 2694 3123 2891 
Q 3359 3088 3359 3513 
Q 3359 3941 3123 4136 
Q 2888 4331 2375 4331 
L 1581 4331 
L 1581 2694 
z
M 353 0 
L 353 331 
L 947 331 
L 947 4331 
L 353 4331 
L 353 4666 
L 2656 4666 
Q 3363 4666 3720 4377 
Q 4078 4088 4078 3513 
Q 4078 3097 3829 2850 
Q 3581 2603 3103 2547 
Q 3697 2472 4005 2167 
Q 4313 1863 4313 1350 
Q 4313 656 3875 328 
Q 3438 0 2509 0 
L 353 0 
z
" transform="scale(0.015625)"/>
      <path id="DejaVuSerif-63" d="M 3291 997 
Q 3169 466 2822 187 
Q 2475 -91 1925 -91 
Q 1200 -91 759 389 
Q 319 869 319 1663 
Q 319 2459 759 2936 
Q 1200 3413 1925 3413 
Q 2241 3413 2553 3339 
Q 2866 3266 3181 3116 
L 3181 2266 
L 2847 2266 
Q 2781 2703 2561 2903 
Q 2341 3103 1931 3103 
Q 1466 3103 1228 2742 
Q 991 2381 991 1663 
Q 991 944 1227 581 
Q 1463 219 1931 219 
Q 2303 219 2525 412 
Q 2747 606 2828 997 
L 3291 997 
z
" transform="scale(0.015625)"/>
      <path id="DejaVuSerif-68" d="M 263 0 
L 263 331 
L 781 331 
L 781 4531 
L 231 4531 
L 231 4863 
L 1356 4863 
L 1356 2731 
Q 1516 3069 1770 3241 
Q 2025 3413 2363 3413 
Q 2913 3413 3172 3097 
Q 3431 2781 3431 2113 
L 3431 331 
L 3944 331 
L 3944 0 
L 2356 0 
L 2356 331 
L 2853 331 
L 2853 1931 
Q 2853 2541 2704 2764 
Q 2556 2988 2175 2988 
Q 1775 2988 1565 2697 
Q 1356 2406 1356 1850 
L 1356 331 
L 1856 331 
L 1856 0 
L 263 0 
z
" transform="scale(0.015625)"/>
     </defs>
     <use xlink:href="#DejaVuSerif-44"/>
     <use xlink:href="#DejaVuSerif-65" transform="translate(80.175781 0)"/>
     <use xlink:href="#DejaVuSerif-73" transform="translate(139.355469 0)"/>
     <use xlink:href="#DejaVuSerif-69" transform="translate(190.673828 0)"/>
     <use xlink:href="#DejaVuSerif-67" transform="translate(222.65625 0)"/>
     <use xlink:href="#DejaVuSerif-6e" transform="translate(286.669922 0)"/>
     <use xlink:href="#DejaVuSerif-42" transform="translate(351.074219 0)"/>
     <use xlink:href="#DejaVuSerif-65" transform="translate(424.560547 0)"/>
     <use xlink:href="#DejaVuSerif-6e" transform="translate(483.740234 0)"/>
     <use xlink:href="#DejaVuSerif-63" transform="translate(548.144531 0)"/>
     <use xlink:href="#DejaVuSerif-68" transform="translate(604.150391 0)"/>
    </g>
   </g>
  </g>
  <g id="axes_2">
   <g id="patch_7">
    <path d="M 557.207188 298.5775 
L 985.827187 298.5775 
L 985.827187 25.3575 
L 557.207188 25.3575 
z
" style="fill: #ffffff"/>
   </g>
   <g id="matplotlib.axis_3">
    <g id="xtick_16">
     <g id="line2d_25">
      <path d="M 576.689915 298.5775 
L 576.689915 25.3575 
" clip-path="url(#pf54e7534ce)" style="fill: none; stroke-dasharray: 1.85,0.8; stroke-dashoffset: 0; stroke: #cccccc; stroke-opacity: 0.3; stroke-width: 0.5"/>
     </g>
     <g id="text_24">
      <!-- 1 -->
      <g style="fill: #262626" transform="translate(572.872415 316.795625) scale(0.12 -0.12)">
       <use xlink:href="#DejaVuSerif-31"/>
      </g>
     </g>
    </g>
    <g id="xtick_17">
     <g id="line2d_26">
      <path d="M 604.522382 298.5775 
L 604.522382 25.3575 
" clip-path="url(#pf54e7534ce)" style="fill: none; stroke-dasharray: 1.85,0.8; stroke-dashoffset: 0; stroke: #cccccc; stroke-opacity: 0.3; stroke-width: 0.5"/>
     </g>
     <g id="text_25">
      <!-- 2 -->
      <g style="fill: #262626" transform="translate(600.704882 316.795625) scale(0.12 -0.12)">
       <use xlink:href="#DejaVuSerif-32"/>
      </g>
     </g>
    </g>
    <g id="xtick_18">
     <g id="line2d_27">
      <path d="M 632.35485 298.5775 
L 632.35485 25.3575 
" clip-path="url(#pf54e7534ce)" style="fill: none; stroke-dasharray: 1.85,0.8; stroke-dashoffset: 0; stroke: #cccccc; stroke-opacity: 0.3; stroke-width: 0.5"/>
     </g>
     <g id="text_26">
      <!-- 3 -->
      <g style="fill: #262626" transform="translate(628.53735 316.795625) scale(0.12 -0.12)">
       <use xlink:href="#DejaVuSerif-33"/>
      </g>
     </g>
    </g>
    <g id="xtick_19">
     <g id="line2d_28">
      <path d="M 660.187317 298.5775 
L 660.187317 25.3575 
" clip-path="url(#pf54e7534ce)" style="fill: none; stroke-dasharray: 1.85,0.8; stroke-dashoffset: 0; stroke: #cccccc; stroke-opacity: 0.3; stroke-width: 0.5"/>
     </g>
     <g id="text_27">
      <!-- 4 -->
      <g style="fill: #262626" transform="translate(656.369817 316.795625) scale(0.12 -0.12)">
       <use xlink:href="#DejaVuSerif-34"/>
      </g>
     </g>
    </g>
    <g id="xtick_20">
     <g id="line2d_29">
      <path d="M 688.019785 298.5775 
L 688.019785 25.3575 
" clip-path="url(#pf54e7534ce)" style="fill: none; stroke-dasharray: 1.85,0.8; stroke-dashoffset: 0; stroke: #cccccc; stroke-opacity: 0.3; stroke-width: 0.5"/>
     </g>
     <g id="text_28">
      <!-- 5 -->
      <g style="fill: #262626" transform="translate(684.202285 316.795625) scale(0.12 -0.12)">
       <use xlink:href="#DejaVuSerif-35"/>
      </g>
     </g>
    </g>
    <g id="xtick_21">
     <g id="line2d_30">
      <path d="M 715.852252 298.5775 
L 715.852252 25.3575 
" clip-path="url(#pf54e7534ce)" style="fill: none; stroke-dasharray: 1.85,0.8; stroke-dashoffset: 0; stroke: #cccccc; stroke-opacity: 0.3; stroke-width: 0.5"/>
     </g>
     <g id="text_29">
      <!-- 6 -->
      <g style="fill: #262626" transform="translate(712.034752 316.795625) scale(0.12 -0.12)">
       <use xlink:href="#DejaVuSerif-36"/>
      </g>
     </g>
    </g>
    <g id="xtick_22">
     <g id="line2d_31">
      <path d="M 743.68472 298.5775 
L 743.68472 25.3575 
" clip-path="url(#pf54e7534ce)" style="fill: none; stroke-dasharray: 1.85,0.8; stroke-dashoffset: 0; stroke: #cccccc; stroke-opacity: 0.3; stroke-width: 0.5"/>
     </g>
     <g id="text_30">
      <!-- 7 -->
      <g style="fill: #262626" transform="translate(739.86722 316.795625) scale(0.12 -0.12)">
       <use xlink:href="#DejaVuSerif-37"/>
      </g>
     </g>
    </g>
    <g id="xtick_23">
     <g id="line2d_32">
      <path d="M 771.517188 298.5775 
L 771.517188 25.3575 
" clip-path="url(#pf54e7534ce)" style="fill: none; stroke-dasharray: 1.85,0.8; stroke-dashoffset: 0; stroke: #cccccc; stroke-opacity: 0.3; stroke-width: 0.5"/>
     </g>
     <g id="text_31">
      <!-- 8 -->
      <g style="fill: #262626" transform="translate(767.699688 316.795625) scale(0.12 -0.12)">
       <use xlink:href="#DejaVuSerif-38"/>
      </g>
     </g>
    </g>
    <g id="xtick_24">
     <g id="line2d_33">
      <path d="M 799.349655 298.5775 
L 799.349655 25.3575 
" clip-path="url(#pf54e7534ce)" style="fill: none; stroke-dasharray: 1.85,0.8; stroke-dashoffset: 0; stroke: #cccccc; stroke-opacity: 0.3; stroke-width: 0.5"/>
     </g>
     <g id="text_32">
      <!-- 9 -->
      <g style="fill: #262626" transform="translate(795.532155 316.795625) scale(0.12 -0.12)">
       <use xlink:href="#DejaVuSerif-39"/>
      </g>
     </g>
    </g>
    <g id="xtick_25">
     <g id="line2d_34">
      <path d="M 827.182123 298.5775 
L 827.182123 25.3575 
" clip-path="url(#pf54e7534ce)" style="fill: none; stroke-dasharray: 1.85,0.8; stroke-dashoffset: 0; stroke: #cccccc; stroke-opacity: 0.3; stroke-width: 0.5"/>
     </g>
     <g id="text_33">
      <!-- 10 -->
      <g style="fill: #262626" transform="translate(819.547123 316.795625) scale(0.12 -0.12)">
       <use xlink:href="#DejaVuSerif-31"/>
       <use xlink:href="#DejaVuSerif-30" transform="translate(63.623047 0)"/>
      </g>
     </g>
    </g>
    <g id="xtick_26">
     <g id="line2d_35">
      <path d="M 855.01459 298.5775 
L 855.01459 25.3575 
" clip-path="url(#pf54e7534ce)" style="fill: none; stroke-dasharray: 1.85,0.8; stroke-dashoffset: 0; stroke: #cccccc; stroke-opacity: 0.3; stroke-width: 0.5"/>
     </g>
     <g id="text_34">
      <!-- 11 -->
      <g style="fill: #262626" transform="translate(847.37959 316.795625) scale(0.12 -0.12)">
       <use xlink:href="#DejaVuSerif-31"/>
       <use xlink:href="#DejaVuSerif-31" transform="translate(63.623047 0)"/>
      </g>
     </g>
    </g>
    <g id="xtick_27">
     <g id="line2d_36">
      <path d="M 882.847058 298.5775 
L 882.847058 25.3575 
" clip-path="url(#pf54e7534ce)" style="fill: none; stroke-dasharray: 1.85,0.8; stroke-dashoffset: 0; stroke: #cccccc; stroke-opacity: 0.3; stroke-width: 0.5"/>
     </g>
     <g id="text_35">
      <!-- 12 -->
      <g style="fill: #262626" transform="translate(875.212058 316.795625) scale(0.12 -0.12)">
       <use xlink:href="#DejaVuSerif-31"/>
       <use xlink:href="#DejaVuSerif-32" transform="translate(63.623047 0)"/>
      </g>
     </g>
    </g>
    <g id="xtick_28">
     <g id="line2d_37">
      <path d="M 910.679525 298.5775 
L 910.679525 25.3575 
" clip-path="url(#pf54e7534ce)" style="fill: none; stroke-dasharray: 1.85,0.8; stroke-dashoffset: 0; stroke: #cccccc; stroke-opacity: 0.3; stroke-width: 0.5"/>
     </g>
     <g id="text_36">
      <!-- 13 -->
      <g style="fill: #262626" transform="translate(903.044525 316.795625) scale(0.12 -0.12)">
       <use xlink:href="#DejaVuSerif-31"/>
       <use xlink:href="#DejaVuSerif-33" transform="translate(63.623047 0)"/>
      </g>
     </g>
    </g>
    <g id="xtick_29">
     <g id="line2d_38">
      <path d="M 938.511993 298.5775 
L 938.511993 25.3575 
" clip-path="url(#pf54e7534ce)" style="fill: none; stroke-dasharray: 1.85,0.8; stroke-dashoffset: 0; stroke: #cccccc; stroke-opacity: 0.3; stroke-width: 0.5"/>
     </g>
     <g id="text_37">
      <!-- 14 -->
      <g style="fill: #262626" transform="translate(930.876993 316.795625) scale(0.12 -0.12)">
       <use xlink:href="#DejaVuSerif-31"/>
       <use xlink:href="#DejaVuSerif-34" transform="translate(63.623047 0)"/>
      </g>
     </g>
    </g>
    <g id="xtick_30">
     <g id="line2d_39">
      <path d="M 966.34446 298.5775 
L 966.34446 25.3575 
" clip-path="url(#pf54e7534ce)" style="fill: none; stroke-dasharray: 1.85,0.8; stroke-dashoffset: 0; stroke: #cccccc; stroke-opacity: 0.3; stroke-width: 0.5"/>
     </g>
     <g id="text_38">
      <!-- 15 -->
      <g style="fill: #262626" transform="translate(958.70946 316.795625) scale(0.12 -0.12)">
       <use xlink:href="#DejaVuSerif-31"/>
       <use xlink:href="#DejaVuSerif-35" transform="translate(63.623047 0)"/>
      </g>
     </g>
    </g>
    <g id="text_39">
     <!-- Number of Iterations -->
     <g style="fill: #262626" transform="translate(696.41375 333.929062) scale(0.14 -0.14)">
      <use xlink:href="#DejaVuSerif-4e"/>
      <use xlink:href="#DejaVuSerif-75" transform="translate(87.5 0)"/>
      <use xlink:href="#DejaVuSerif-6d" transform="translate(151.904297 0)"/>
      <use xlink:href="#DejaVuSerif-62" transform="translate(246.728516 0)"/>
      <use xlink:href="#DejaVuSerif-65" transform="translate(310.742188 0)"/>
      <use xlink:href="#DejaVuSerif-72" transform="translate(369.921875 0)"/>
      <use xlink:href="#DejaVuSerif-20" transform="translate(417.724609 0)"/>
      <use xlink:href="#DejaVuSerif-6f" transform="translate(449.511719 0)"/>
      <use xlink:href="#DejaVuSerif-66" transform="translate(509.716797 0)"/>
      <use xlink:href="#DejaVuSerif-20" transform="translate(546.728516 0)"/>
      <use xlink:href="#DejaVuSerif-49" transform="translate(578.515625 0)"/>
      <use xlink:href="#DejaVuSerif-74" transform="translate(618.017578 0)"/>
      <use xlink:href="#DejaVuSerif-65" transform="translate(658.203125 0)"/>
      <use xlink:href="#DejaVuSerif-72" transform="translate(717.382812 0)"/>
      <use xlink:href="#DejaVuSerif-61" transform="translate(765.185547 0)"/>
      <use xlink:href="#DejaVuSerif-74" transform="translate(824.804688 0)"/>
      <use xlink:href="#DejaVuSerif-69" transform="translate(864.990234 0)"/>
      <use xlink:href="#DejaVuSerif-6f" transform="translate(896.972656 0)"/>
      <use xlink:href="#DejaVuSerif-6e" transform="translate(957.177734 0)"/>
      <use xlink:href="#DejaVuSerif-73" transform="translate(1021.582031 0)"/>
     </g>
    </g>
   </g>
   <g id="matplotlib.axis_4">
    <g id="ytick_6">
     <g id="line2d_40">
      <path d="M 557.207188 258.943735 
L 985.827187 258.943735 
" clip-path="url(#pf54e7534ce)" style="fill: none; stroke-dasharray: 1.85,0.8; stroke-dashoffset: 0; stroke: #cccccc; stroke-opacity: 0.3; stroke-width: 0.5"/>
     </g>
     <g id="text_40">
      <!-- 0.56 -->
      <g style="fill: #262626" transform="translate(521.388438 263.502797) scale(0.12 -0.12)">
       <use xlink:href="#DejaVuSerif-30"/>
       <use xlink:href="#DejaVuSerif-2e" transform="translate(63.623047 0)"/>
       <use xlink:href="#DejaVuSerif-35" transform="translate(95.410156 0)"/>
       <use xlink:href="#DejaVuSerif-36" transform="translate(159.033203 0)"/>
      </g>
     </g>
    </g>
    <g id="ytick_7">
     <g id="line2d_41">
      <path d="M 557.207188 198.710049 
L 985.827187 198.710049 
" clip-path="url(#pf54e7534ce)" style="fill: none; stroke-dasharray: 1.85,0.8; stroke-dashoffset: 0; stroke: #cccccc; stroke-opacity: 0.3; stroke-width: 0.5"/>
     </g>
     <g id="text_41">
      <!-- 0.58 -->
      <g style="fill: #262626" transform="translate(521.388438 203.269111) scale(0.12 -0.12)">
       <use xlink:href="#DejaVuSerif-30"/>
       <use xlink:href="#DejaVuSerif-2e" transform="translate(63.623047 0)"/>
       <use xlink:href="#DejaVuSerif-35" transform="translate(95.410156 0)"/>
       <use xlink:href="#DejaVuSerif-38" transform="translate(159.033203 0)"/>
      </g>
     </g>
    </g>
    <g id="ytick_8">
     <g id="line2d_42">
      <path d="M 557.207188 138.476362 
L 985.827187 138.476362 
" clip-path="url(#pf54e7534ce)" style="fill: none; stroke-dasharray: 1.85,0.8; stroke-dashoffset: 0; stroke: #cccccc; stroke-opacity: 0.3; stroke-width: 0.5"/>
     </g>
     <g id="text_42">
      <!-- 0.60 -->
      <g style="fill: #262626" transform="translate(521.388438 143.035425) scale(0.12 -0.12)">
       <use xlink:href="#DejaVuSerif-30"/>
       <use xlink:href="#DejaVuSerif-2e" transform="translate(63.623047 0)"/>
       <use xlink:href="#DejaVuSerif-36" transform="translate(95.410156 0)"/>
       <use xlink:href="#DejaVuSerif-30" transform="translate(159.033203 0)"/>
      </g>
     </g>
    </g>
    <g id="ytick_9">
     <g id="line2d_43">
      <path d="M 557.207188 78.242676 
L 985.827187 78.242676 
" clip-path="url(#pf54e7534ce)" style="fill: none; stroke-dasharray: 1.85,0.8; stroke-dashoffset: 0; stroke: #cccccc; stroke-opacity: 0.3; stroke-width: 0.5"/>
     </g>
     <g id="text_43">
      <!-- 0.62 -->
      <g style="fill: #262626" transform="translate(521.388438 82.801739) scale(0.12 -0.12)">
       <use xlink:href="#DejaVuSerif-30"/>
       <use xlink:href="#DejaVuSerif-2e" transform="translate(63.623047 0)"/>
       <use xlink:href="#DejaVuSerif-36" transform="translate(95.410156 0)"/>
       <use xlink:href="#DejaVuSerif-32" transform="translate(159.033203 0)"/>
      </g>
     </g>
    </g>
    <g id="text_44">
     <!-- Alignment -->
     <g style="fill: #262626" transform="translate(514.277812 198.592813) rotate(-90) scale(0.14 -0.14)">
      <use xlink:href="#DejaVuSerif-41"/>
      <use xlink:href="#DejaVuSerif-6c" transform="translate(72.216797 0)"/>
      <use xlink:href="#DejaVuSerif-69" transform="translate(104.199219 0)"/>
      <use xlink:href="#DejaVuSerif-67" transform="translate(136.181641 0)"/>
      <use xlink:href="#DejaVuSerif-6e" transform="translate(200.195312 0)"/>
      <use xlink:href="#DejaVuSerif-6d" transform="translate(264.599609 0)"/>
      <use xlink:href="#DejaVuSerif-65" transform="translate(359.423828 0)"/>
      <use xlink:href="#DejaVuSerif-6e" transform="translate(418.603516 0)"/>
      <use xlink:href="#DejaVuSerif-74" transform="translate(483.007812 0)"/>
     </g>
    </g>
   </g>
   <g id="FillBetweenPolyCollection_3">
    <defs>
     <path id="m541f97c253" d="M 576.689915 -247.209453 
L 576.689915 -198.420168 
L 604.522382 -205.045873 
L 632.35485 -220.706631 
L 660.187317 -252.329317 
L 688.019785 -251.124643 
L 715.852252 -250.823474 
L 743.68472 -252.028148 
L 771.517188 -264.978391 
L 799.349655 -255.341001 
L 827.182123 -251.72698 
L 855.01459 -257.148011 
L 882.847058 -260.159696 
L 910.679525 -256.244506 
L 938.511993 -261.665538 
L 966.34446 -284.855507 
L 966.34446 -339.668161 
L 966.34446 -339.668161 
L 938.511993 -316.478192 
L 910.679525 -311.05716 
L 882.847058 -316.177024 
L 855.01459 -310.755992 
L 827.182123 -307.744308 
L 799.349655 -310.755992 
L 771.517188 -317.984034 
L 743.68472 -308.647813 
L 715.852252 -307.443139 
L 688.019785 -305.33496 
L 660.187317 -302.925613 
L 632.35485 -270.098254 
L 604.522382 -255.039832 
L 576.689915 -247.209453 
z
" style="stroke: #8da0cb; stroke-opacity: 0.2; stroke-width: 0.24"/>
    </defs>
    <g clip-path="url(#pf54e7534ce)">
     <use xlink:href="#m541f97c253" x="0" y="388.6975" style="fill: #8da0cb; fill-opacity: 0.2; stroke: #8da0cb; stroke-opacity: 0.2; stroke-width: 0.24"/>
    </g>
   </g>
   <g id="FillBetweenPolyCollection_4">
    <defs>
     <path id="md619a2fb8c" d="M 576.689915 -250.823474 
L 576.689915 -195.408483 
L 604.522382 -161.978787 
L 632.35485 -185.469925 
L 660.187317 -200.829515 
L 688.019785 -207.154052 
L 715.852252 -201.431852 
L 743.68472 -232.4522 
L 771.517188 -228.838179 
L 799.349655 -217.393779 
L 827.182123 -217.694947 
L 855.01459 -227.934674 
L 882.847058 -234.861548 
L 910.679525 -247.81179 
L 938.511993 -250.522306 
L 966.34446 -254.437496 
L 966.34446 -309.25015 
L 966.34446 -309.25015 
L 938.511993 -305.33496 
L 910.679525 -302.022108 
L 882.847058 -286.662518 
L 855.01459 -281.542654 
L 827.182123 -270.098254 
L 799.349655 -270.399422 
L 771.517188 -279.434475 
L 743.68472 -283.048496 
L 715.852252 -254.437496 
L 688.019785 -258.352685 
L 660.187317 -252.630485 
L 632.35485 -234.259211 
L 604.522382 -214.382094 
L 576.689915 -250.823474 
z
" style="stroke: #66c2a5; stroke-opacity: 0.2; stroke-width: 0.24"/>
    </defs>
    <g clip-path="url(#pf54e7534ce)">
     <use xlink:href="#md619a2fb8c" x="0" y="388.6975" style="fill: #66c2a5; fill-opacity: 0.2; stroke: #66c2a5; stroke-opacity: 0.2; stroke-width: 0.24"/>
    </g>
   </g>
   <g id="line2d_44">
    <path d="M 576.689915 165.88269 
L 604.522382 158.654647 
L 632.35485 143.295057 
L 660.187317 111.070035 
L 688.019785 110.467698 
L 715.852252 109.564193 
L 743.68472 108.359519 
L 771.517188 97.216287 
L 799.349655 105.649004 
L 827.182123 108.961856 
L 855.01459 104.745498 
L 882.847058 100.52914 
L 910.679525 105.046667 
L 938.511993 99.625635 
L 966.34446 76.435666 
" clip-path="url(#pf54e7534ce)" style="fill: none; stroke: #8da0cb; stroke-width: 2; stroke-linecap: round"/>
   </g>
   <g id="line2d_45">
    <path d="M 576.689915 165.581521 
L 604.522382 200.517059 
L 632.35485 178.832932 
L 660.187317 161.9675 
L 688.019785 155.944131 
L 715.852252 160.762826 
L 743.68472 130.947152 
L 771.517188 134.561173 
L 799.349655 144.800899 
L 827.182123 144.800899 
L 855.01459 133.958836 
L 882.847058 127.935467 
L 910.679525 113.780551 
L 938.511993 110.768867 
L 966.34446 106.853677 
" clip-path="url(#pf54e7534ce)" style="fill: none; stroke: #66c2a5; stroke-width: 2; stroke-linecap: round"/>
   </g>
   <g id="line2d_46">
    <path d="M 576.689915 264.364766 
L 604.522382 264.364766 
L 632.35485 264.364766 
L 660.187317 264.364766 
L 688.019785 264.364766 
L 715.852252 264.364766 
L 743.68472 264.364766 
L 771.517188 264.364766 
L 799.349655 264.364766 
L 827.182123 264.364766 
L 855.01459 264.364766 
L 882.847058 264.364766 
L 910.679525 264.364766 
L 938.511993 264.364766 
L 966.34446 264.364766 
" clip-path="url(#pf54e7534ce)" style="fill: none; stroke: #fc8d62; stroke-width: 2; stroke-linecap: round"/>
   </g>
   <g id="line2d_47">
    <path d="M 576.689915 275.809167 
L 604.522382 275.809167 
L 632.35485 275.809167 
L 660.187317 275.809167 
L 688.019785 275.809167 
L 715.852252 275.809167 
L 743.68472 275.809167 
L 771.517188 275.809167 
L 799.349655 275.809167 
L 827.182123 275.809167 
L 855.01459 275.809167 
L 882.847058 275.809167 
L 910.679525 275.809167 
L 938.511993 275.809167 
L 966.34446 275.809167 
" clip-path="url(#pf54e7534ce)" style="fill: none; stroke: #e78ac3; stroke-width: 2; stroke-linecap: round"/>
   </g>
   <g id="patch_8">
    <path d="M 557.207188 298.5775 
L 557.207188 25.3575 
" style="fill: none; stroke: #cccccc; stroke-width: 0.8; stroke-linejoin: miter; stroke-linecap: square"/>
   </g>
   <g id="patch_9">
    <path d="M 985.827187 298.5775 
L 985.827187 25.3575 
" style="fill: none; stroke: #cccccc; stroke-width: 0.8; stroke-linejoin: miter; stroke-linecap: square"/>
   </g>
   <g id="patch_10">
    <path d="M 557.207188 298.5775 
L 985.827188 298.5775 
" style="fill: none; stroke: #cccccc; stroke-width: 0.8; stroke-linejoin: miter; stroke-linecap: square"/>
   </g>
   <g id="patch_11">
    <path d="M 557.207188 25.3575 
L 985.827188 25.3575 
" style="fill: none; stroke: #cccccc; stroke-width: 0.8; stroke-linejoin: miter; stroke-linecap: square"/>
   </g>
   <g id="text_45">
    <!-- IDEA-Bench -->
    <g style="fill: #262626" transform="translate(722.223437 19.3575) scale(0.16 -0.16)">
     <defs>
      <path id="DejaVuSerif-45" d="M 353 0 
L 353 331 
L 947 331 
L 947 4331 
L 353 4331 
L 353 4666 
L 4109 4666 
L 4109 3628 
L 3725 3628 
L 3725 4281 
L 1581 4281 
L 1581 2719 
L 3109 2719 
L 3109 3303 
L 3494 3303 
L 3494 1753 
L 3109 1753 
L 3109 2338 
L 1581 2338 
L 1581 384 
L 3775 384 
L 3775 1038 
L 4159 1038 
L 4159 0 
L 353 0 
z
" transform="scale(0.015625)"/>
      <path id="DejaVuSerif-2d" d="M 281 1959 
L 1881 1959 
L 1881 1472 
L 281 1472 
L 281 1959 
z
" transform="scale(0.015625)"/>
     </defs>
     <use xlink:href="#DejaVuSerif-49"/>
     <use xlink:href="#DejaVuSerif-44" transform="translate(39.501953 0)"/>
     <use xlink:href="#DejaVuSerif-45" transform="translate(119.677734 0)"/>
     <use xlink:href="#DejaVuSerif-41" transform="translate(192.675781 0)"/>
     <use xlink:href="#DejaVuSerif-2d" transform="translate(264.892578 0)"/>
     <use xlink:href="#DejaVuSerif-42" transform="translate(298.681641 0)"/>
     <use xlink:href="#DejaVuSerif-65" transform="translate(372.167969 0)"/>
     <use xlink:href="#DejaVuSerif-6e" transform="translate(431.347656 0)"/>
     <use xlink:href="#DejaVuSerif-63" transform="translate(495.751953 0)"/>
     <use xlink:href="#DejaVuSerif-68" transform="translate(551.757812 0)"/>
    </g>
   </g>
  </g>
  <g id="legend_1">
   <g id="patch_12">
    <path d="M 254.376328 381.4975 
L 739.518047 381.4975 
Q 742.118047 381.4975 742.118047 378.8975 
L 742.118047 361.115937 
Q 742.118047 358.515938 739.518047 358.515938 
L 254.376328 358.515938 
Q 251.776328 358.515938 251.776328 361.115937 
L 251.776328 378.8975 
Q 251.776328 381.4975 254.376328 381.4975 
z
" style="fill: #ffffff; opacity: 0.8; stroke: #cccccc; stroke-width: 0.24; stroke-linejoin: miter"/>
   </g>
   <g id="line2d_48">
    <path d="M 256.976328 369.043906 
L 269.976328 369.043906 
L 282.976328 369.043906 
" style="fill: none; stroke: #8da0cb; stroke-width: 2; stroke-linecap: round"/>
   </g>
   <g id="text_46">
    <!-- APE (Ours) -->
    <g style="fill: #262626" transform="translate(293.376328 373.593906) scale(0.13 -0.13)">
     <defs>
      <path id="DejaVuSerif-50" d="M 1581 2375 
L 2406 2375 
Q 2872 2375 3115 2626 
Q 3359 2878 3359 3353 
Q 3359 3831 3115 4081 
Q 2872 4331 2406 4331 
L 1581 4331 
L 1581 2375 
z
M 353 0 
L 353 331 
L 947 331 
L 947 4331 
L 353 4331 
L 353 4666 
L 2559 4666 
Q 3259 4666 3668 4311 
Q 4078 3956 4078 3353 
Q 4078 2753 3668 2397 
Q 3259 2041 2559 2041 
L 1581 2041 
L 1581 331 
L 2303 331 
L 2303 0 
L 353 0 
z
" transform="scale(0.015625)"/>
      <path id="DejaVuSerif-28" d="M 2041 -997 
Q 1281 -656 893 83 
Q 506 822 506 1931 
Q 506 3044 893 3783 
Q 1281 4522 2041 4863 
L 2041 4556 
Q 1559 4225 1350 3623 
Q 1141 3022 1141 1931 
Q 1141 844 1350 242 
Q 1559 -359 2041 -691 
L 2041 -997 
z
" transform="scale(0.015625)"/>
      <path id="DejaVuSerif-4f" d="M 2625 244 
Q 3391 244 3781 770 
Q 4172 1297 4172 2328 
Q 4172 3363 3781 3889 
Q 3391 4416 2625 4416 
Q 1856 4416 1465 3889 
Q 1075 3363 1075 2328 
Q 1075 1297 1465 770 
Q 1856 244 2625 244 
z
M 2625 -91 
Q 2150 -91 1751 65 
Q 1353 222 1050 525 
Q 700 875 529 1319 
Q 359 1763 359 2328 
Q 359 2894 529 3339 
Q 700 3784 1050 4134 
Q 1356 4441 1750 4595 
Q 2144 4750 2625 4750 
Q 3641 4750 4266 4084 
Q 4891 3419 4891 2328 
Q 4891 1769 4719 1320 
Q 4547 872 4197 525 
Q 3891 219 3497 64 
Q 3103 -91 2625 -91 
z
" transform="scale(0.015625)"/>
      <path id="DejaVuSerif-29" d="M 453 -997 
L 453 -691 
Q 934 -359 1145 242 
Q 1356 844 1356 1931 
Q 1356 3022 1145 3623 
Q 934 4225 453 4556 
L 453 4863 
Q 1216 4522 1603 3783 
Q 1991 3044 1991 1931 
Q 1991 822 1603 83 
Q 1216 -656 453 -997 
z
" transform="scale(0.015625)"/>
     </defs>
     <use xlink:href="#DejaVuSerif-41"/>
     <use xlink:href="#DejaVuSerif-50" transform="translate(72.216797 0)"/>
     <use xlink:href="#DejaVuSerif-45" transform="translate(139.501953 0)"/>
     <use xlink:href="#DejaVuSerif-20" transform="translate(212.5 0)"/>
     <use xlink:href="#DejaVuSerif-28" transform="translate(244.287109 0)"/>
     <use xlink:href="#DejaVuSerif-4f" transform="translate(283.300781 0)"/>
     <use xlink:href="#DejaVuSerif-75" transform="translate(365.283203 0)"/>
     <use xlink:href="#DejaVuSerif-72" transform="translate(429.6875 0)"/>
     <use xlink:href="#DejaVuSerif-73" transform="translate(477.490234 0)"/>
     <use xlink:href="#DejaVuSerif-29" transform="translate(528.808594 0)"/>
    </g>
   </g>
   <g id="line2d_49">
    <path d="M 393.191953 369.043906 
L 406.191953 369.043906 
L 419.191953 369.043906 
" style="fill: none; stroke: #66c2a5; stroke-width: 2; stroke-linecap: round"/>
   </g>
   <g id="text_47">
    <!-- In-Context -->
    <g style="fill: #262626" transform="translate(429.591953 373.593906) scale(0.13 -0.13)">
     <defs>
      <path id="DejaVuSerif-43" d="M 4513 1234 
Q 4306 581 3820 245 
Q 3334 -91 2591 -91 
Q 2134 -91 1743 65 
Q 1353 222 1050 525 
Q 700 875 529 1320 
Q 359 1766 359 2328 
Q 359 3416 987 4083 
Q 1616 4750 2644 4750 
Q 3025 4750 3456 4650 
Q 3888 4550 4384 4347 
L 4384 3272 
L 4031 3272 
Q 3916 3859 3567 4137 
Q 3219 4416 2591 4416 
Q 1844 4416 1459 3886 
Q 1075 3356 1075 2328 
Q 1075 1303 1459 773 
Q 1844 244 2591 244 
Q 3113 244 3450 492 
Q 3788 741 3938 1234 
L 4513 1234 
z
" transform="scale(0.015625)"/>
      <path id="DejaVuSerif-78" d="M 1863 2028 
L 2559 2988 
L 2113 2988 
L 2113 3322 
L 3391 3322 
L 3391 2988 
L 2950 2988 
L 2059 1759 
L 3097 331 
L 3531 331 
L 3531 0 
L 1997 0 
L 1997 331 
L 2419 331 
L 1697 1325 
L 972 331 
L 1403 331 
L 1403 0 
L 141 0 
L 141 331 
L 581 331 
L 1497 1594 
L 488 2988 
L 78 2988 
L 78 3322 
L 1563 3322 
L 1563 2988 
L 1166 2988 
L 1863 2028 
z
" transform="scale(0.015625)"/>
     </defs>
     <use xlink:href="#DejaVuSerif-49"/>
     <use xlink:href="#DejaVuSerif-6e" transform="translate(39.501953 0)"/>
     <use xlink:href="#DejaVuSerif-2d" transform="translate(103.90625 0)"/>
     <use xlink:href="#DejaVuSerif-43" transform="translate(137.695312 0)"/>
     <use xlink:href="#DejaVuSerif-6f" transform="translate(214.208984 0)"/>
     <use xlink:href="#DejaVuSerif-6e" transform="translate(274.414062 0)"/>
     <use xlink:href="#DejaVuSerif-74" transform="translate(338.818359 0)"/>
     <use xlink:href="#DejaVuSerif-65" transform="translate(379.003906 0)"/>
     <use xlink:href="#DejaVuSerif-78" transform="translate(438.183594 0)"/>
     <use xlink:href="#DejaVuSerif-74" transform="translate(494.580078 0)"/>
    </g>
   </g>
   <g id="line2d_50">
    <path d="M 525.113516 369.043906 
L 538.113516 369.043906 
L 551.113516 369.043906 
" style="fill: none; stroke: #fc8d62; stroke-width: 2; stroke-linecap: round"/>
   </g>
   <g id="text_48">
    <!-- APO -->
    <g style="fill: #262626" transform="translate(561.513516 373.593906) scale(0.13 -0.13)">
     <use xlink:href="#DejaVuSerif-41"/>
     <use xlink:href="#DejaVuSerif-50" transform="translate(72.216797 0)"/>
     <use xlink:href="#DejaVuSerif-4f" transform="translate(139.501953 0)"/>
    </g>
   </g>
   <g id="line2d_51">
    <path d="M 616.306484 369.043906 
L 629.306484 369.043906 
L 642.306484 369.043906 
" style="fill: none; stroke: #e78ac3; stroke-width: 2; stroke-linecap: round"/>
   </g>
   <g id="text_49">
    <!-- Unoptimized -->
    <g style="fill: #262626" transform="translate(652.706484 373.593906) scale(0.13 -0.13)">
     <defs>
      <path id="DejaVuSerif-55" d="M 897 4331 
L 300 4331 
L 300 4666 
L 2125 4666 
L 2125 4331 
L 1528 4331 
L 1528 1919 
Q 1528 1025 1820 672 
Q 2113 319 2828 319 
Q 3544 319 3836 672 
Q 4128 1025 4128 1919 
L 4128 4331 
L 3531 4331 
L 3531 4666 
L 5106 4666 
L 5106 4331 
L 4513 4331 
L 4513 1856 
Q 4513 791 4103 350 
Q 3694 -91 2713 -91 
Q 1731 -91 1314 353 
Q 897 797 897 1856 
L 897 4331 
z
" transform="scale(0.015625)"/>
      <path id="DejaVuSerif-70" d="M 1313 1825 
L 1313 1497 
Q 1313 897 1542 583 
Q 1772 269 2209 269 
Q 2650 269 2876 622 
Q 3103 975 3103 1663 
Q 3103 2353 2876 2703 
Q 2650 3053 2209 3053 
Q 1772 3053 1542 2737 
Q 1313 2422 1313 1825 
z
M 738 2988 
L 184 2988 
L 184 3322 
L 1313 3322 
L 1313 2803 
Q 1481 3116 1742 3264 
Q 2003 3413 2388 3413 
Q 3000 3413 3387 2928 
Q 3775 2444 3775 1663 
Q 3775 881 3387 395 
Q 3000 -91 2388 -91 
Q 2003 -91 1742 57 
Q 1481 206 1313 519 
L 1313 -997 
L 1856 -997 
L 1856 -1331 
L 184 -1331 
L 184 -997 
L 738 -997 
L 738 2988 
z
" transform="scale(0.015625)"/>
      <path id="DejaVuSerif-7a" d="M 256 0 
L 256 269 
L 2338 2988 
L 691 2988 
L 691 2413 
L 359 2413 
L 359 3322 
L 3078 3322 
L 3078 3053 
L 997 331 
L 2803 331 
L 2803 934 
L 3138 934 
L 3138 0 
L 256 0 
z
" transform="scale(0.015625)"/>
      <path id="DejaVuSerif-64" d="M 3359 331 
L 3909 331 
L 3909 0 
L 2784 0 
L 2784 519 
Q 2616 206 2355 57 
Q 2094 -91 1709 -91 
Q 1097 -91 708 395 
Q 319 881 319 1663 
Q 319 2444 706 2928 
Q 1094 3413 1709 3413 
Q 2094 3413 2355 3264 
Q 2616 3116 2784 2803 
L 2784 4531 
L 2241 4531 
L 2241 4863 
L 3359 4863 
L 3359 331 
z
M 2784 1497 
L 2784 1825 
Q 2784 2422 2554 2737 
Q 2325 3053 1888 3053 
Q 1444 3053 1217 2703 
Q 991 2353 991 1663 
Q 991 975 1217 622 
Q 1444 269 1888 269 
Q 2325 269 2554 583 
Q 2784 897 2784 1497 
z
" transform="scale(0.015625)"/>
     </defs>
     <use xlink:href="#DejaVuSerif-55"/>
     <use xlink:href="#DejaVuSerif-6e" transform="translate(84.277344 0)"/>
     <use xlink:href="#DejaVuSerif-6f" transform="translate(148.681641 0)"/>
     <use xlink:href="#DejaVuSerif-70" transform="translate(208.886719 0)"/>
     <use xlink:href="#DejaVuSerif-74" transform="translate(272.900391 0)"/>
     <use xlink:href="#DejaVuSerif-69" transform="translate(313.085938 0)"/>
     <use xlink:href="#DejaVuSerif-6d" transform="translate(345.068359 0)"/>
     <use xlink:href="#DejaVuSerif-69" transform="translate(439.892578 0)"/>
     <use xlink:href="#DejaVuSerif-7a" transform="translate(471.875 0)"/>
     <use xlink:href="#DejaVuSerif-65" transform="translate(524.560547 0)"/>
     <use xlink:href="#DejaVuSerif-64" transform="translate(583.740234 0)"/>
    </g>
   </g>
  </g>
 </g>
 <defs>
  <clipPath id="p0ad40b5a8a">
   <rect x="60.767188" y="25.3575" width="428.62" height="273.22"/>
  </clipPath>
  <clipPath id="pf54e7534ce">
   <rect x="557.207188" y="25.3575" width="428.62" height="273.22"/>
  </clipPath>
 </defs>
</svg>
